<svg xmlns="http://www.w3.org/2000/svg" viewBox="0 0 240 240" role="img" aria-label="Sample GCash QR placeholder">
  <rect width="240" height="240" fill="#ffffff"/>
  <rect x="8" y="8" width="224" height="224" rx="12" fill="#f0f7ff" stroke="#007cff" stroke-width="3"/>
  <!-- finder patterns -->
  <rect x="24" y="24" width="56" height="56" fill="#007cff"/>
  <rect x="36" y="36" width="32" height="32" fill="#ffffff"/>
  <rect x="44" y="44" width="16" height="16" fill="#007cff"/>
  <rect x="160" y="24" width="56" height="56" fill="#007cff"/>
  <rect x="172" y="36" width="32" height="32" fill="#ffffff"/>
  <rect x="180" y="44" width="16" height="16" fill="#007cff"/>
  <rect x="24" y="160" width="56" height="56" fill="#007cff"/>
  <rect x="36" y="172" width="32" height="32" fill="#ffffff"/>
  <rect x="44" y="180" width="16" height="16" fill="#007cff"/>
  <!-- data modules -->
  <g fill="#007cff">
    <rect x="96" y="32" width="12" height="12"/><rect x="120" y="32" width="12" height="12"/><rect x="144" y="32" width="12" height="12"/>
    <rect x="108" y="44" width="12" height="12"/><rect x="132" y="44" width="12" height="12"/>
    <rect x="96" y="56" width="12" height="12"/><rect x="120" y="56" width="12" height="12"/><rect x="144" y="56" width="12" height="12"/>
    <rect x="32" y="96" width="12" height="12"/><rect x="56" y="96" width="12" height="12"/><rect x="80" y="96" width="12" height="12"/>
    <rect x="104" y="96" width="12" height="12"/><rect x="128" y="96" width="12" height="12"/><rect x="152" y="96" width="12" height="12"/><rect x="176" y="96" width="12" height="12"/>
    <rect x="44" y="108" width="12" height="12"/><rect x="68" y="108" width="12" height="12"/><rect x="116" y="108" width="12" height="12"/><rect x="140" y="108" width="12" height="12"/><rect x="188" y="108" width="12" height="12"/>
    <rect x="32" y="120" width="12" height="12"/><rect x="80" y="120" width="12" height="12"/><rect x="104" y="120" width="12" height="12"/><rect x="152" y="120" width="12" height="12"/><rect x="176" y="120" width="12" height="12"/>
    <rect x="56" y="132" width="12" height="12"/><rect x="128" y="132" width="12" height="12"/><rect x="164" y="132" width="12" height="12"/><rect x="188" y="132" width="12" height="12"/>
    <rect x="96" y="144" width="12" height="12"/><rect x="120" y="144" width="12" height="12"/><rect x="144" y="144" width="12" height="12"/><rect x="176" y="144" width="12" height="12"/>
    <rect x="96" y="160" width="12" height="12"/><rect x="132" y="160" width="12" height="12"/><rect x="160" y="160" width="12" height="12"/><rect x="184" y="184" width="12" height="12"/>
    <rect x="108" y="172" width="12" height="12"/><rect x="144" y="172" width="12" height="12"/><rect x="172" y="172" width="12" height="12"/>
    <rect x="96" y="184" width="12" height="12"/><rect x="120" y="184" width="12" height="12"/><rect x="156" y="184" width="12" height="12"/><rect x="196" y="196" width="12" height="12"/>
  </g>
  <text x="120" y="228" text-anchor="middle" font-family="system-ui,sans-serif" font-size="11" font-weight="600" fill="#007cff">SAMPLE QR</text>
</svg>
